<?xml version="1.0"?><svg width="899.99994" height="460" xmlns="http://www.w3.org/2000/svg">
 <title>Thick rainbow</title>

 <metadata id="metadata7">image/svg+xmlRainbow Semicircle18 May 2009Jeremy BennettJeremy BennettJeremy BennettrainbowsemicircleA stylised rainbow half circleJeremy Bennett</metadata>
 <g>
  <title>Layer 1</title>
  <g id="svg_1">
   <path id="svg_2" fill="none" stroke="#ff0000" stroke-width="9.556271" stroke-linecap="square" stroke-linejoin="round" stroke-miterlimit="4" stroke-dashoffset="0" d="m19.500099,447.000031a440,440 0 0 1 880.000023,0"/>
   <path id="svg_3" fill="none" stroke="#ff7f00" stroke-width="10.011332" stroke-linecap="square" stroke-linejoin="round" stroke-miterlimit="4" stroke-dashoffset="0" d="m39.500092,446.999939a420,420 0 0 1 839.999969,0.000061"/>
   <path id="svg_4" fill="none" stroke="#ffff00" stroke-width="10.511898" stroke-linecap="square" stroke-linejoin="round" stroke-miterlimit="4" stroke-dashoffset="0" d="m59.500099,446.999969a400.000031,400 0 0 1 800.000023,0.000031"/>
   <path id="svg_5" fill="none" stroke="#00ff00" stroke-width="11.065156" stroke-linecap="square" stroke-linejoin="round" stroke-miterlimit="4" stroke-dashoffset="0" d="m79.500092,446.999969a380,380 0 0 1 759.999969,0.000031"/>
   <path id="svg_6" fill="none" stroke="#0000ff" stroke-width="11.679887" stroke-linecap="square" stroke-linejoin="round" stroke-miterlimit="4" stroke-dashoffset="0" d="m99.500092,446.999939a359.999969,360 0 0 1 719.999908,0.000061"/>
   <path id="svg_7" fill="none" stroke="#6600ff" stroke-width="12.366939" stroke-linecap="square" stroke-linejoin="round" stroke-miterlimit="4" stroke-dashoffset="0" d="m119.500092,446.999969a340,340 0 0 1 679.999969,0.000031"/>
   <path id="svg_8" fill="none" stroke="#8b00ff" stroke-width="13.139872" stroke-linecap="square" stroke-linejoin="round" stroke-miterlimit="4" stroke-dashoffset="0" d="m139.500092,446.999969a320.000031,320 0 0 1 640.000031,0.000031"/>
  </g>
  <g id="svg_9">
   <path id="svg_10" fill="none" stroke="#ff0000" stroke-width="9.556271" stroke-linecap="square" stroke-linejoin="round" stroke-miterlimit="4" stroke-dashoffset="0" d="m12.500099,437.000031a440,440 0 0 1 880.000023,0"/>
   <path id="svg_11" fill="none" stroke="#ff7f00" stroke-width="10.011332" stroke-linecap="square" stroke-linejoin="round" stroke-miterlimit="4" stroke-dashoffset="0" d="m32.500092,436.999939a420,420 0 0 1 839.999969,0.000061"/>
   <path id="svg_12" fill="none" stroke="#ffff00" stroke-width="10.511898" stroke-linecap="square" stroke-linejoin="round" stroke-miterlimit="4" stroke-dashoffset="0" d="m52.500099,436.999969a400.000031,400 0 0 1 800.000023,0.000031"/>
   <path id="svg_13" fill="none" stroke="#00ff00" stroke-width="11.065156" stroke-linecap="square" stroke-linejoin="round" stroke-miterlimit="4" stroke-dashoffset="0" d="m72.500092,436.999969a380,380 0 0 1 759.999969,0.000031"/>
   <path id="svg_14" fill="none" stroke="#0000ff" stroke-width="11.679887" stroke-linecap="square" stroke-linejoin="round" stroke-miterlimit="4" stroke-dashoffset="0" d="m92.500092,436.999939a359.999969,360 0 0 1 719.999908,0.000061"/>
   <path id="svg_15" fill="none" stroke="#6600ff" stroke-width="12.366939" stroke-linecap="square" stroke-linejoin="round" stroke-miterlimit="4" stroke-dashoffset="0" d="m112.500092,436.999969a340,340 0 0 1 679.999969,0.000031"/>
   <path id="svg_16" fill="none" stroke="#8b00ff" stroke-width="13.139872" stroke-linecap="square" stroke-linejoin="round" stroke-miterlimit="4" stroke-dashoffset="0" d="m132.500092,436.999969a320.000031,320 0 0 1 640.000031,0.000031"/>
  </g>
  <g id="layer1">
   <path fill="none" stroke="#ff0000" stroke-width="9.556271" stroke-linecap="square" stroke-linejoin="round" stroke-miterlimit="4" stroke-dashoffset="0" d="m10.000008,448.000031a440,440 0 0 1 880.000053,0" id="path3155"/>
   <path fill="none" stroke="#ff7f00" stroke-width="10.011332" stroke-linecap="square" stroke-linejoin="round" stroke-miterlimit="4" stroke-dashoffset="0" d="m30,447.999939a420,420 0 0 1 840,0.000061" id="path3163"/>
   <path fill="none" stroke="#ffff00" stroke-width="10.511898" stroke-linecap="square" stroke-linejoin="round" stroke-miterlimit="4" stroke-dashoffset="0" d="m50.000008,447.999969a400.000031,400 0 0 1 800.000053,0.000031" id="path3165"/>
   <path fill="none" stroke="#00ff00" stroke-width="11.065156" stroke-linecap="square" stroke-linejoin="round" stroke-miterlimit="4" stroke-dashoffset="0" d="m70,447.999969a380,380 0 0 1 760,0.000031" id="path3167"/>
   <path fill="none" stroke="#0000ff" stroke-width="11.679887" stroke-linecap="square" stroke-linejoin="round" stroke-miterlimit="4" stroke-dashoffset="0" d="m90,447.999939a359.999969,360 0 0 1 719.999939,0.000061" id="path3169"/>
   <path fill="none" stroke="#6600ff" stroke-width="12.366939" stroke-linecap="square" stroke-linejoin="round" stroke-miterlimit="4" stroke-dashoffset="0" d="m110,447.999969a340,340 0 0 1 680,0.000031" id="path3171"/>
   <path fill="none" stroke="#8b00ff" stroke-width="13.139872" stroke-linecap="square" stroke-linejoin="round" stroke-miterlimit="4" stroke-dashoffset="0" d="m130,447.999969a320.000031,320 0 0 1 640.000061,0.000031" id="path3173"/>
  </g>
  <g id="svg_17">
   <path id="svg_18" fill="none" stroke="#ff0000" stroke-width="9.556271" stroke-linecap="square" stroke-linejoin="round" stroke-miterlimit="4" stroke-dashoffset="0" d="m7.5001,447a440,440 0 0 1 879.9999,0"/>
   <path id="svg_19" fill="none" stroke="#ff7f00" stroke-width="10.011332" stroke-linecap="square" stroke-linejoin="round" stroke-miterlimit="4" stroke-dashoffset="0" d="m27.500099,447a420,420 0 0 1 839.999901,0"/>
   <path id="svg_20" fill="none" stroke="#ffff00" stroke-width="10.511898" stroke-linecap="square" stroke-linejoin="round" stroke-miterlimit="4" stroke-dashoffset="0" d="m47.500099,447a400,400 0 0 1 799.999901,0"/>
   <path id="svg_21" fill="none" stroke="#00ff00" stroke-width="11.065156" stroke-linecap="square" stroke-linejoin="round" stroke-miterlimit="4" stroke-dashoffset="0" d="m67.500099,447a380,380 0 0 1 759.999901,0"/>
   <path id="svg_22" fill="none" stroke="#0000ff" stroke-width="11.679887" stroke-linecap="square" stroke-linejoin="round" stroke-miterlimit="4" stroke-dashoffset="0" d="m87.500099,447a360,360 0 0 1 719.999901,0"/>
   <path id="svg_23" fill="none" stroke="#6600ff" stroke-width="12.366939" stroke-linecap="square" stroke-linejoin="round" stroke-miterlimit="4" stroke-dashoffset="0" d="m107.5,447a340,340 0 0 1 680,0"/>
   <path id="svg_24" fill="none" stroke="#8b00ff" stroke-width="13.139872" stroke-linecap="square" stroke-linejoin="round" stroke-miterlimit="4" stroke-dashoffset="0" d="m127.5,447a320,320 0 0 1 640,0"/>
  </g>
 </g>
</svg>